<mxfile host="app.diagrams.net" modified="2024-11-02T15:08:55.124Z" agent="Mozilla/5.0 (Windows NT 10.0; Win64; x64; rv:132.0) Gecko/20100101 Firefox/132.0" etag="pNgHNhJPA4swzD8VZNa8" version="24.4.4" type="device">
  <diagram name="Page-1" id="67Paq3q05Fjui2GCagF5">
    <mxGraphModel dx="1793" dy="943" grid="1" gridSize="10" guides="1" tooltips="1" connect="1" arrows="1" fold="1" page="1" pageScale="1" pageWidth="827" pageHeight="1169" math="0" shadow="0">
      <root>
        <mxCell id="0" />
        <mxCell id="1" parent="0" />
        <mxCell id="Q893p9Hm9FpIvx5cbT78-4" style="edgeStyle=orthogonalEdgeStyle;rounded=0;orthogonalLoop=1;jettySize=auto;html=1;" edge="1" parent="1" source="Q893p9Hm9FpIvx5cbT78-1" target="Q893p9Hm9FpIvx5cbT78-3">
          <mxGeometry relative="1" as="geometry" />
        </mxCell>
        <mxCell id="Q893p9Hm9FpIvx5cbT78-6" value="&lt;div&gt;Frame&lt;/div&gt;&lt;div&gt;captured&lt;/div&gt;" style="edgeLabel;html=1;align=center;verticalAlign=middle;resizable=0;points=[];" vertex="1" connectable="0" parent="Q893p9Hm9FpIvx5cbT78-4">
          <mxGeometry x="-0.0667" y="2" relative="1" as="geometry">
            <mxPoint as="offset" />
          </mxGeometry>
        </mxCell>
        <mxCell id="Q893p9Hm9FpIvx5cbT78-1" value="&lt;div&gt;Camera&lt;/div&gt;&lt;div&gt;Crowd&lt;br&gt;&lt;/div&gt;&lt;div&gt;(Smartphone)&lt;/div&gt;" style="rounded=0;whiteSpace=wrap;html=1;strokeWidth=2;fillColor=#f8cecc;strokeColor=#b85450;" vertex="1" parent="1">
          <mxGeometry x="9" y="20" width="100" height="50" as="geometry" />
        </mxCell>
        <mxCell id="Q893p9Hm9FpIvx5cbT78-55" style="edgeStyle=orthogonalEdgeStyle;rounded=0;orthogonalLoop=1;jettySize=auto;html=1;fillColor=#f5f5f5;strokeColor=#666666;dashed=1;" edge="1" parent="1" source="Q893p9Hm9FpIvx5cbT78-3" target="Q893p9Hm9FpIvx5cbT78-52">
          <mxGeometry relative="1" as="geometry">
            <Array as="points">
              <mxPoint x="330" y="45" />
              <mxPoint x="330" y="220" />
            </Array>
          </mxGeometry>
        </mxCell>
        <mxCell id="Q893p9Hm9FpIvx5cbT78-56" style="edgeStyle=orthogonalEdgeStyle;rounded=0;orthogonalLoop=1;jettySize=auto;html=1;" edge="1" parent="1" source="Q893p9Hm9FpIvx5cbT78-3" target="Q893p9Hm9FpIvx5cbT78-51">
          <mxGeometry relative="1" as="geometry">
            <Array as="points">
              <mxPoint x="330" y="45" />
              <mxPoint x="330" y="130" />
            </Array>
          </mxGeometry>
        </mxCell>
        <mxCell id="Q893p9Hm9FpIvx5cbT78-59" style="edgeStyle=orthogonalEdgeStyle;rounded=0;orthogonalLoop=1;jettySize=auto;html=1;" edge="1" parent="1" source="Q893p9Hm9FpIvx5cbT78-3" target="Q893p9Hm9FpIvx5cbT78-57">
          <mxGeometry relative="1" as="geometry" />
        </mxCell>
        <mxCell id="Q893p9Hm9FpIvx5cbT78-3" value="&lt;div&gt;Face Detection&lt;/div&gt;&lt;div&gt;Model (FDM)&lt;br&gt;&lt;/div&gt;" style="rounded=0;whiteSpace=wrap;html=1;" vertex="1" parent="1">
          <mxGeometry x="180" y="15" width="120" height="60" as="geometry" />
        </mxCell>
        <mxCell id="Q893p9Hm9FpIvx5cbT78-8" value="Emotion Detection Model (EDM)" style="rounded=0;whiteSpace=wrap;html=1;" vertex="1" parent="1">
          <mxGeometry x="500" y="15" width="120" height="60" as="geometry" />
        </mxCell>
        <mxCell id="Q893p9Hm9FpIvx5cbT78-23" style="edgeStyle=orthogonalEdgeStyle;rounded=0;orthogonalLoop=1;jettySize=auto;html=1;" edge="1" parent="1" source="Q893p9Hm9FpIvx5cbT78-9" target="Q893p9Hm9FpIvx5cbT78-20">
          <mxGeometry relative="1" as="geometry">
            <Array as="points">
              <mxPoint x="749" y="130" />
              <mxPoint x="749" y="130" />
            </Array>
          </mxGeometry>
        </mxCell>
        <mxCell id="Q893p9Hm9FpIvx5cbT78-9" value="Emotion Detection Model (EDM)" style="rounded=0;whiteSpace=wrap;html=1;" vertex="1" parent="1">
          <mxGeometry x="500" y="100" width="120" height="60" as="geometry" />
        </mxCell>
        <mxCell id="Q893p9Hm9FpIvx5cbT78-10" value="Emotion Detection Model (EDM)" style="rounded=0;whiteSpace=wrap;html=1;strokeColor=#666666;dashed=1;fillColor=#f5f5f5;fontColor=#333333;" vertex="1" parent="1">
          <mxGeometry x="500" y="190" width="120" height="60" as="geometry" />
        </mxCell>
        <mxCell id="Q893p9Hm9FpIvx5cbT78-19" value="&lt;div&gt;Face image&lt;/div&gt;&lt;div&gt;extracted&lt;br&gt;&lt;/div&gt;" style="edgeLabel;html=1;align=center;verticalAlign=middle;resizable=0;points=[];" vertex="1" connectable="0" parent="1">
          <mxGeometry x="340" y="50" as="geometry">
            <mxPoint x="2" y="-4" as="offset" />
          </mxGeometry>
        </mxCell>
        <mxCell id="Q893p9Hm9FpIvx5cbT78-40" style="edgeStyle=orthogonalEdgeStyle;rounded=0;orthogonalLoop=1;jettySize=auto;html=1;" edge="1" parent="1" source="Q893p9Hm9FpIvx5cbT78-20" target="Q893p9Hm9FpIvx5cbT78-38">
          <mxGeometry relative="1" as="geometry">
            <Array as="points">
              <mxPoint x="759" y="360" />
            </Array>
          </mxGeometry>
        </mxCell>
        <mxCell id="Q893p9Hm9FpIvx5cbT78-43" value="&lt;div&gt;Data fetched&lt;/div&gt;" style="edgeLabel;html=1;align=center;verticalAlign=middle;resizable=0;points=[];" vertex="1" connectable="0" parent="Q893p9Hm9FpIvx5cbT78-40">
          <mxGeometry x="0.1399" y="3" relative="1" as="geometry">
            <mxPoint x="-32" y="-3" as="offset" />
          </mxGeometry>
        </mxCell>
        <mxCell id="Q893p9Hm9FpIvx5cbT78-20" value="Database" style="rounded=0;whiteSpace=wrap;html=1;fillColor=#fff2cc;strokeColor=#d6b656;" vertex="1" parent="1">
          <mxGeometry x="699" y="10" width="120" height="230" as="geometry" />
        </mxCell>
        <mxCell id="Q893p9Hm9FpIvx5cbT78-28" value="&lt;font style=&quot;font-size: 24px;&quot;&gt;...&lt;/font&gt;" style="text;html=1;align=center;verticalAlign=middle;whiteSpace=wrap;rounded=0;fillColor=#f5f5f5;fontColor=#333333;strokeColor=#666666;" vertex="1" parent="1">
          <mxGeometry x="530" y="260" width="60" height="30" as="geometry" />
        </mxCell>
        <mxCell id="Q893p9Hm9FpIvx5cbT78-32" style="edgeStyle=orthogonalEdgeStyle;rounded=0;orthogonalLoop=1;jettySize=auto;html=1;" edge="1" parent="1" source="Q893p9Hm9FpIvx5cbT78-29" target="Q893p9Hm9FpIvx5cbT78-30">
          <mxGeometry relative="1" as="geometry" />
        </mxCell>
        <mxCell id="Q893p9Hm9FpIvx5cbT78-33" value="&lt;div&gt;Frame&lt;/div&gt;&lt;div&gt;Captured&lt;br&gt;&lt;/div&gt;" style="edgeLabel;html=1;align=center;verticalAlign=middle;resizable=0;points=[];" vertex="1" connectable="0" parent="Q893p9Hm9FpIvx5cbT78-32">
          <mxGeometry x="-0.1313" relative="1" as="geometry">
            <mxPoint as="offset" />
          </mxGeometry>
        </mxCell>
        <mxCell id="Q893p9Hm9FpIvx5cbT78-29" value="&lt;div&gt;Camera&lt;/div&gt;&lt;div&gt;Host&lt;br&gt;&lt;/div&gt;&lt;div&gt;(AR Glasses)&lt;br&gt;&lt;/div&gt;" style="rounded=0;whiteSpace=wrap;html=1;strokeWidth=2;strokeColor=#b85450;fillColor=#f8cecc;" vertex="1" parent="1">
          <mxGeometry x="709" y="405" width="100" height="50" as="geometry" />
        </mxCell>
        <mxCell id="Q893p9Hm9FpIvx5cbT78-35" style="edgeStyle=orthogonalEdgeStyle;rounded=0;orthogonalLoop=1;jettySize=auto;html=1;" edge="1" parent="1" source="Q893p9Hm9FpIvx5cbT78-30" target="Q893p9Hm9FpIvx5cbT78-34">
          <mxGeometry relative="1" as="geometry" />
        </mxCell>
        <mxCell id="Q893p9Hm9FpIvx5cbT78-37" value="&lt;div&gt;Face image&lt;/div&gt;&lt;div&gt;extracted&lt;br&gt;&lt;/div&gt;" style="edgeLabel;html=1;align=center;verticalAlign=middle;resizable=0;points=[];" vertex="1" connectable="0" parent="Q893p9Hm9FpIvx5cbT78-35">
          <mxGeometry x="-0.0698" y="1" relative="1" as="geometry">
            <mxPoint as="offset" />
          </mxGeometry>
        </mxCell>
        <mxCell id="Q893p9Hm9FpIvx5cbT78-30" value="&lt;div&gt;Face Detection&lt;/div&gt;Model (FDM)" style="rounded=0;whiteSpace=wrap;html=1;" vertex="1" parent="1">
          <mxGeometry x="500" y="400" width="120" height="60" as="geometry" />
        </mxCell>
        <mxCell id="Q893p9Hm9FpIvx5cbT78-39" style="edgeStyle=orthogonalEdgeStyle;rounded=0;orthogonalLoop=1;jettySize=auto;html=1;" edge="1" parent="1" source="Q893p9Hm9FpIvx5cbT78-34" target="Q893p9Hm9FpIvx5cbT78-38">
          <mxGeometry relative="1" as="geometry">
            <Array as="points">
              <mxPoint x="220" y="430" />
              <mxPoint x="220" y="378" />
            </Array>
          </mxGeometry>
        </mxCell>
        <mxCell id="Q893p9Hm9FpIvx5cbT78-44" value="&lt;div&gt;Face identifier&lt;/div&gt;&lt;div&gt;generated&lt;br&gt;&lt;/div&gt;" style="edgeLabel;html=1;align=center;verticalAlign=middle;resizable=0;points=[];" vertex="1" connectable="0" parent="Q893p9Hm9FpIvx5cbT78-39">
          <mxGeometry x="-0.2046" y="1" relative="1" as="geometry">
            <mxPoint y="12" as="offset" />
          </mxGeometry>
        </mxCell>
        <mxCell id="Q893p9Hm9FpIvx5cbT78-34" value="Face identifier" style="rounded=0;whiteSpace=wrap;html=1;" vertex="1" parent="1">
          <mxGeometry x="294" y="400" width="120" height="60" as="geometry" />
        </mxCell>
        <mxCell id="Q893p9Hm9FpIvx5cbT78-38" value="AR Display" style="rounded=0;whiteSpace=wrap;html=1;fillColor=#d5e8d4;strokeColor=#82b366;strokeWidth=2;" vertex="1" parent="1">
          <mxGeometry x="9" y="295" width="120" height="165" as="geometry" />
        </mxCell>
        <mxCell id="Q893p9Hm9FpIvx5cbT78-47" style="edgeStyle=orthogonalEdgeStyle;rounded=0;orthogonalLoop=1;jettySize=auto;html=1;dashed=1;fillColor=#f5f5f5;strokeColor=#666666;" edge="1" parent="1" source="Q893p9Hm9FpIvx5cbT78-10">
          <mxGeometry relative="1" as="geometry">
            <mxPoint x="589" y="220" as="sourcePoint" />
            <mxPoint x="699" y="130" as="targetPoint" />
            <Array as="points">
              <mxPoint x="660" y="220" />
              <mxPoint x="660" y="130" />
            </Array>
          </mxGeometry>
        </mxCell>
        <mxCell id="Q893p9Hm9FpIvx5cbT78-53" style="edgeStyle=orthogonalEdgeStyle;rounded=0;orthogonalLoop=1;jettySize=auto;html=1;" edge="1" parent="1" source="Q893p9Hm9FpIvx5cbT78-51" target="Q893p9Hm9FpIvx5cbT78-9">
          <mxGeometry relative="1" as="geometry" />
        </mxCell>
        <mxCell id="Q893p9Hm9FpIvx5cbT78-51" value="&lt;div&gt;Face Identifier&lt;/div&gt;&lt;div&gt;Model (FIM)&lt;br&gt;&lt;/div&gt;" style="rounded=0;whiteSpace=wrap;html=1;" vertex="1" parent="1">
          <mxGeometry x="390" y="110" width="90" height="40" as="geometry" />
        </mxCell>
        <mxCell id="Q893p9Hm9FpIvx5cbT78-54" style="edgeStyle=orthogonalEdgeStyle;rounded=0;orthogonalLoop=1;jettySize=auto;html=1;dashed=1;fillColor=#f5f5f5;strokeColor=#666666;" edge="1" parent="1" source="Q893p9Hm9FpIvx5cbT78-52" target="Q893p9Hm9FpIvx5cbT78-10">
          <mxGeometry relative="1" as="geometry" />
        </mxCell>
        <mxCell id="Q893p9Hm9FpIvx5cbT78-52" value="&lt;div&gt;Face Identifier&lt;/div&gt;&lt;div&gt;Model (FIM)&lt;br&gt;&lt;/div&gt;" style="rounded=0;whiteSpace=wrap;html=1;fillColor=#f5f5f5;fontColor=#333333;strokeColor=#666666;dashed=1;" vertex="1" parent="1">
          <mxGeometry x="390" y="200" width="90" height="40" as="geometry" />
        </mxCell>
        <mxCell id="Q893p9Hm9FpIvx5cbT78-58" style="edgeStyle=orthogonalEdgeStyle;rounded=0;orthogonalLoop=1;jettySize=auto;html=1;" edge="1" parent="1" source="Q893p9Hm9FpIvx5cbT78-57" target="Q893p9Hm9FpIvx5cbT78-8">
          <mxGeometry relative="1" as="geometry" />
        </mxCell>
        <mxCell id="Q893p9Hm9FpIvx5cbT78-57" value="&lt;div&gt;Face Identifier&lt;/div&gt;&lt;div&gt;Model (FIM)&lt;br&gt;&lt;/div&gt;" style="rounded=0;whiteSpace=wrap;html=1;" vertex="1" parent="1">
          <mxGeometry x="390" y="25" width="90" height="40" as="geometry" />
        </mxCell>
        <mxCell id="Q893p9Hm9FpIvx5cbT78-61" style="edgeStyle=orthogonalEdgeStyle;rounded=0;orthogonalLoop=1;jettySize=auto;html=1;" edge="1" parent="1" source="Q893p9Hm9FpIvx5cbT78-8">
          <mxGeometry relative="1" as="geometry">
            <mxPoint x="620" y="45" as="sourcePoint" />
            <mxPoint x="699" y="130" as="targetPoint" />
            <Array as="points">
              <mxPoint x="660" y="45" />
              <mxPoint x="660" y="130" />
            </Array>
          </mxGeometry>
        </mxCell>
        <mxCell id="Q893p9Hm9FpIvx5cbT78-62" value="&lt;div&gt;Emotion&lt;/div&gt;&lt;div&gt;Processed&lt;/div&gt;" style="edgeLabel;html=1;align=center;verticalAlign=middle;resizable=0;points=[];" vertex="1" connectable="0" parent="1">
          <mxGeometry x="658" y="130" as="geometry" />
        </mxCell>
        <mxCell id="Q893p9Hm9FpIvx5cbT78-63" style="edgeStyle=orthogonalEdgeStyle;rounded=0;orthogonalLoop=1;jettySize=auto;html=1;" edge="1" parent="1" source="Q893p9Hm9FpIvx5cbT78-65" target="Q893p9Hm9FpIvx5cbT78-69">
          <mxGeometry relative="1" as="geometry" />
        </mxCell>
        <mxCell id="Q893p9Hm9FpIvx5cbT78-64" value="&lt;div&gt;Frame&lt;/div&gt;&lt;div&gt;captured&lt;/div&gt;" style="edgeLabel;html=1;align=center;verticalAlign=middle;resizable=0;points=[];" vertex="1" connectable="0" parent="Q893p9Hm9FpIvx5cbT78-63">
          <mxGeometry x="-0.0667" y="2" relative="1" as="geometry">
            <mxPoint as="offset" />
          </mxGeometry>
        </mxCell>
        <mxCell id="Q893p9Hm9FpIvx5cbT78-65" value="&lt;div&gt;Camera&lt;/div&gt;&lt;div&gt;Crowd&lt;br&gt;&lt;/div&gt;&lt;div&gt;(Smartphone)&lt;/div&gt;" style="rounded=0;whiteSpace=wrap;html=1;strokeWidth=2;fillColor=#f8cecc;strokeColor=#b85450;" vertex="1" parent="1">
          <mxGeometry x="940" y="65" width="100" height="50" as="geometry" />
        </mxCell>
        <mxCell id="Q893p9Hm9FpIvx5cbT78-120" style="edgeStyle=orthogonalEdgeStyle;rounded=0;orthogonalLoop=1;jettySize=auto;html=1;" edge="1" parent="1" source="Q893p9Hm9FpIvx5cbT78-69" target="Q893p9Hm9FpIvx5cbT78-70">
          <mxGeometry relative="1" as="geometry" />
        </mxCell>
        <mxCell id="Q893p9Hm9FpIvx5cbT78-121" style="edgeStyle=orthogonalEdgeStyle;rounded=0;orthogonalLoop=1;jettySize=auto;html=1;" edge="1" parent="1" source="Q893p9Hm9FpIvx5cbT78-69" target="Q893p9Hm9FpIvx5cbT78-72">
          <mxGeometry relative="1" as="geometry">
            <Array as="points">
              <mxPoint x="1260" y="90" />
              <mxPoint x="1260" y="175" />
            </Array>
          </mxGeometry>
        </mxCell>
        <mxCell id="Q893p9Hm9FpIvx5cbT78-122" style="edgeStyle=orthogonalEdgeStyle;rounded=0;orthogonalLoop=1;jettySize=auto;html=1;" edge="1" parent="1" source="Q893p9Hm9FpIvx5cbT78-69" target="Q893p9Hm9FpIvx5cbT78-73">
          <mxGeometry relative="1" as="geometry">
            <Array as="points">
              <mxPoint x="1260" y="90" />
              <mxPoint x="1260" y="265" />
            </Array>
          </mxGeometry>
        </mxCell>
        <mxCell id="Q893p9Hm9FpIvx5cbT78-69" value="&lt;div&gt;Face Detection&lt;/div&gt;&lt;div&gt;Model (FDM)&lt;br&gt;&lt;/div&gt;" style="rounded=0;whiteSpace=wrap;html=1;" vertex="1" parent="1">
          <mxGeometry x="1111" y="60" width="120" height="60" as="geometry" />
        </mxCell>
        <mxCell id="Q893p9Hm9FpIvx5cbT78-119" style="edgeStyle=orthogonalEdgeStyle;rounded=0;orthogonalLoop=1;jettySize=auto;html=1;" edge="1" parent="1" source="Q893p9Hm9FpIvx5cbT78-70" target="Q893p9Hm9FpIvx5cbT78-98">
          <mxGeometry relative="1" as="geometry">
            <Array as="points">
              <mxPoint x="1450" y="90" />
              <mxPoint x="1450" y="175" />
            </Array>
          </mxGeometry>
        </mxCell>
        <mxCell id="Q893p9Hm9FpIvx5cbT78-70" value="Emotion Detection Model (EDM)" style="rounded=0;whiteSpace=wrap;html=1;" vertex="1" parent="1">
          <mxGeometry x="1300" y="60" width="123.5" height="60" as="geometry" />
        </mxCell>
        <mxCell id="Q893p9Hm9FpIvx5cbT78-118" style="edgeStyle=orthogonalEdgeStyle;rounded=0;orthogonalLoop=1;jettySize=auto;html=1;" edge="1" parent="1" source="Q893p9Hm9FpIvx5cbT78-72" target="Q893p9Hm9FpIvx5cbT78-98">
          <mxGeometry relative="1" as="geometry" />
        </mxCell>
        <mxCell id="Q893p9Hm9FpIvx5cbT78-72" value="Emotion Detection Model (EDM)" style="rounded=0;whiteSpace=wrap;html=1;" vertex="1" parent="1">
          <mxGeometry x="1300" y="145" width="120" height="60" as="geometry" />
        </mxCell>
        <mxCell id="Q893p9Hm9FpIvx5cbT78-117" style="edgeStyle=orthogonalEdgeStyle;rounded=0;orthogonalLoop=1;jettySize=auto;html=1;" edge="1" parent="1" source="Q893p9Hm9FpIvx5cbT78-73" target="Q893p9Hm9FpIvx5cbT78-98">
          <mxGeometry relative="1" as="geometry">
            <Array as="points">
              <mxPoint x="1450" y="265" />
              <mxPoint x="1450" y="175" />
            </Array>
          </mxGeometry>
        </mxCell>
        <mxCell id="Q893p9Hm9FpIvx5cbT78-73" value="Emotion Detection Model (EDM)" style="rounded=0;whiteSpace=wrap;html=1;strokeColor=#666666;dashed=1;fillColor=#f5f5f5;fontColor=#333333;" vertex="1" parent="1">
          <mxGeometry x="1300" y="235" width="120" height="60" as="geometry" />
        </mxCell>
        <mxCell id="Q893p9Hm9FpIvx5cbT78-78" value="&lt;font style=&quot;font-size: 24px;&quot;&gt;...&lt;/font&gt;" style="text;html=1;align=center;verticalAlign=middle;whiteSpace=wrap;rounded=0;fillColor=#f5f5f5;fontColor=#333333;strokeColor=#666666;" vertex="1" parent="1">
          <mxGeometry x="1330" y="305" width="60" height="30" as="geometry" />
        </mxCell>
        <mxCell id="Q893p9Hm9FpIvx5cbT78-124" style="edgeStyle=orthogonalEdgeStyle;rounded=0;orthogonalLoop=1;jettySize=auto;html=1;" edge="1" parent="1" source="Q893p9Hm9FpIvx5cbT78-98" target="Q893p9Hm9FpIvx5cbT78-123">
          <mxGeometry relative="1" as="geometry" />
        </mxCell>
        <mxCell id="Q893p9Hm9FpIvx5cbT78-98" value="Data process" style="rounded=0;whiteSpace=wrap;html=1;strokeWidth=1;" vertex="1" parent="1">
          <mxGeometry x="1490" y="140" width="120" height="70" as="geometry" />
        </mxCell>
        <mxCell id="Q893p9Hm9FpIvx5cbT78-123" value="&lt;div&gt;Display&lt;/div&gt;&lt;div&gt;(Smartphone)&lt;/div&gt;" style="rounded=0;whiteSpace=wrap;html=1;fillColor=#d5e8d4;strokeColor=#82b366;strokeWidth=2;" vertex="1" parent="1">
          <mxGeometry x="1650" y="140" width="120" height="70" as="geometry" />
        </mxCell>
      </root>
    </mxGraphModel>
  </diagram>
</mxfile>
